<?xml version="1.0" encoding="UTF-8" standalone="no"?>
<svg
   xmlns:dc="http://purl.org/dc/elements/1.1/"
   xmlns:cc="http://creativecommons.org/ns#"
   xmlns:rdf="http://www.w3.org/1999/02/22-rdf-syntax-ns#"
   xmlns:svg="http://www.w3.org/2000/svg"
   xmlns="http://www.w3.org/2000/svg"
   xmlns:sodipodi="http://sodipodi.sourceforge.net/DTD/sodipodi-0.dtd"
   xmlns:inkscape="http://www.inkscape.org/namespaces/inkscape"
   width="900"
   height="900"
   version="1.1"
   id="svg3771"
   sodipodi:docname="Symbol_recycling_vote.svg"
   inkscape:version="0.92.2 2405546, 2018-03-11">
  <metadata
     id="metadata3777">
    <rdf:RDF>
      <cc:Work
         rdf:about="">
        <dc:format>image/svg+xml</dc:format>
        <dc:type
           rdf:resource="http://purl.org/dc/dcmitype/StillImage" />
      </cc:Work>
    </rdf:RDF>
  </metadata>
  <defs
     id="defs3775" />
  <sodipodi:namedview
     pagecolor="#ffffff"
     bordercolor="#666666"
     borderopacity="1"
     objecttolerance="10"
     gridtolerance="10"
     guidetolerance="10"
     inkscape:pageopacity="0"
     inkscape:pageshadow="2"
     inkscape:window-width="1920"
     inkscape:window-height="1016"
     id="namedview3773"
     showgrid="false"
     inkscape:zoom="0.93666667"
     inkscape:cx="450"
     inkscape:cy="450"
     inkscape:window-x="0"
     inkscape:window-y="27"
     inkscape:window-maximized="1"
     inkscape:current-layer="svg3771" />
  <circle
     cx="420"
     cy="450"
     r="415"
     fill="#CCCCCC"
     id="circle3765" />
  <circle
     cx="465"
     cy="435"
     r="380"
     fill="#CCFFCC"
     stroke="#006E00"
     stroke-width="70"
     id="circle3767"
     style="stroke:#0000ff;fill:#aaccff" />
  <path
     d="m160 330l38 30-36 69c-18 32 13 63 33 74 19 11 50 12 78 12l51-83 38 21-66-123-135 1m6 169l82 152c17 21 48 26 80 25h87v-144l-165-1c-26 2-59-4-85-32m517-280l-45 19-43-65c-19-31-61-19-80-7-19 12-34 38-48 62l48 85-37 23 140 2 65-119zm-151-77l-173-2c-26 4-46 29-61 58l-42 76 126 70 81-143c11-23 32-50 69-58m8 586l5-48 78-6c37-2 46-44 45-67-1-22-16-48-31-72l-97.16.925-3-43-69 122 73 114m140-94l85-150c9-25-3-54-21-81l-46-74-122 76 86 140c15 21 28 52 17 89z"
     fill="#006E00"
     id="path3769"
     style="fill:#0000ff" />
</svg>
